<svg width="1280" height="720" viewBox="0 0 1280 720" fill="none" xmlns="http://www.w3.org/2000/svg">
  <rect width="1280" height="720" fill="#08090D"/>
  <rect width="1280" height="720" fill="url(#bg)"/>
  <circle cx="1020" cy="120" r="260" fill="#FF5D7A" opacity="0.28"/>
  <circle cx="230" cy="610" r="280" fill="#FFB84D" opacity="0.22"/>
  <path d="M120 520C310 390 420 610 610 470C800 330 980 430 1160 270" stroke="#22D3EE" stroke-width="10" stroke-linecap="round" opacity="0.75"/>
  <g opacity="0.95">
    <rect x="92" y="92" width="1096" height="536" rx="44" fill="white" fill-opacity="0.075" stroke="white" stroke-opacity="0.16"/>
    <rect x="148" y="150" width="984" height="350" rx="30" fill="black" fill-opacity="0.28"/>
    <circle cx="640" cy="325" r="64" fill="white" fill-opacity="0.92"/>
    <path d="M625 292L682 325L625 358V292Z" fill="#111318"/>
    <rect x="148" y="535" width="360" height="22" rx="11" fill="#22D3EE" fill-opacity="0.9"/>
    <rect x="530" y="535" width="210" height="22" rx="11" fill="white" fill-opacity="0.18"/>
    <rect x="762" y="535" width="312" height="22" rx="11" fill="white" fill-opacity="0.12"/>
  </g>
  <text x="148" y="610" fill="white" font-size="56" font-weight="900" font-family="Inter, Arial, sans-serif" letter-spacing="-3">PODCAST CLIP</text>
  <text x="150" y="654" fill="#A7ADBD" font-size="24" font-weight="700" font-family="Inter, Arial, sans-serif">Social Cutdown Edit</text>
  <defs>
    <linearGradient id="bg" x1="0" y1="0" x2="1280" y2="720" gradientUnits="userSpaceOnUse">
      <stop stop-color="#FF5D7A" stop-opacity="0.22"/>
      <stop offset="0.45" stop-color="#08090D"/>
      <stop offset="1" stop-color="#FFB84D" stop-opacity="0.2"/>
    </linearGradient>
  </defs>
</svg>